<?xml version="1.0" encoding="iso-8859-1"?>
<!-- Uploaded to: SVG Repo, www.svgrepo.com, Generator: SVG Repo Mixer Tools -->
<svg version="1.1" id="Layer_1" xmlns="http://www.w3.org/2000/svg" xmlns:xlink="http://www.w3.org/1999/xlink" 
	 viewBox="0 0 512 512" xml:space="preserve">
<path style="fill:#A2B1B7;" d="M317.549,8.17c-50.156,0-90.962,40.805-90.962,90.962v180.289h32.681V99.132
	c0-32.136,26.145-58.281,58.281-58.281s58.281,26.145,58.281,58.281v82.247h32.681V99.132C408.511,48.976,367.705,8.17,317.549,8.17
	z"/>
<rect x="370.383" y="159.591" style="fill:#C4D3D9;" width="43.574" height="278.877"/>
<path style="fill:#A2B1B7;" d="M139.547,8.17c-9.024,0-16.34,7.316-16.34,16.34v124.187h32.681V24.511
	C155.888,15.486,148.572,8.17,139.547,8.17z"/>
<rect x="112.313" y="126.911" style="fill:#C4D3D9;" width="54.468" height="57.578"/>
<path style="fill:#ED6350;" d="M183.122,167.761h-43.574l87.149,303.388h32.681V279.421
	C259.377,228.616,227.756,185.193,183.122,167.761z"/>
<path style="fill:#F37C4A;" d="M183.124,175.626l-87.151-7.865c-44.634,17.432-76.255,60.854-76.255,111.661v191.728h206.979
	V279.421C226.696,235.07,209.171,196.347,183.124,175.626z"/>
<g>
	<path style="fill:#414D53;" d="M41.505,405.787c-12.033,0-21.787,9.754-21.787,21.787v54.468c0,12.033,9.754,21.787,21.787,21.787
		s21.787-9.754,21.787-21.787v-54.468C63.292,415.541,53.538,405.787,41.505,405.787z"/>
	<path style="fill:#414D53;" d="M237.59,405.787c-12.033,0-21.787,9.754-21.787,21.787v54.468c0,12.033,9.754,21.787,21.787,21.787
		c12.033,0,21.787-9.754,21.787-21.787v-54.468C259.377,415.541,249.623,405.787,237.59,405.787z"/>
</g>
<path style="fill:#FBCFA3;" d="M183.122,167.762v35.404c0,11.983-9.804,21.787-21.787,21.787H117.76
	c-11.983,0-21.787-9.804-21.787-21.787v-35.404c13.508-5.273,28.204-8.17,43.574-8.17S169.614,162.489,183.122,167.762z"/>
<path style="fill:#748993;" d="M419.404,438.468h-32.681v54.468l65.362-21.787C452.085,453.174,437.379,438.468,419.404,438.468z"/>
<path style="fill:#A2B1B7;" d="M419.404,471.149l-43.574,21.787l-43.574-21.787c0-17.974,14.706-32.681,32.681-32.681h21.787
	C404.698,438.468,419.404,453.174,419.404,471.149z"/>
<polygon style="fill:#414D53;" points="459.602,471.149 426.921,487.489 459.602,503.83 492.283,503.83 492.283,471.149 "/>
<rect x="292.058" y="471.149" style="fill:#57676E;" width="167.544" height="32.681"/>
<path d="M95.973,413.957h87.149c4.512,0,8.17-3.658,8.17-8.17c0-4.512-3.658-8.17-8.17-8.17H95.973c-4.512,0-8.17,3.658-8.17,8.17
	C87.803,410.299,91.461,413.957,95.973,413.957z"/>
<path d="M95.973,381.277h87.149c4.512,0,8.17-3.658,8.17-8.17c0-4.512-3.658-8.17-8.17-8.17H95.973c-4.512,0-8.17,3.658-8.17,8.17
	C87.803,377.618,91.461,381.277,95.973,381.277z"/>
<path d="M95.973,348.596h87.149c4.512,0,8.17-3.658,8.17-8.17c0-4.512-3.658-8.17-8.17-8.17H95.973c-4.512,0-8.17,3.658-8.17,8.17
	C87.803,344.938,91.461,348.596,95.973,348.596z"/>
<path d="M186.619,160.389c-0.382-0.182-0.779-0.338-1.192-0.46c-3.424-1.319-6.916-2.499-10.475-3.524v-29.494
	c0-4.512-3.658-8.17-8.17-8.17h-2.723v-94.23C164.058,10.995,153.063,0,139.547,0s-24.511,10.995-24.511,24.511v94.23h-2.723
	c-4.512,0-8.17,3.658-8.17,8.17v29.494c-3.558,1.025-7.05,2.205-10.475,3.524c-0.413,0.121-0.809,0.278-1.192,0.46
	c-47.356,18.793-80.929,65.065-80.929,119.032v202.621c0,16.519,13.438,29.957,29.957,29.957s29.957-13.438,29.957-29.957v-54.468
	c0-16.519-13.438-29.957-29.957-29.957c-4.902,0-9.529,1.191-13.617,3.288V279.421c0-42.907,24.33-80.231,59.915-98.922v22.666
	c0,16.519,13.438,29.957,29.957,29.957h43.574c16.519,0,29.957-13.438,29.957-29.957V180.5
	c35.585,18.689,59.915,56.015,59.915,98.922v121.483c-4.088-2.096-8.715-3.288-13.617-3.288c-16.519,0-29.957,13.438-29.957,29.957
	v35.404H95.973c-4.512,0-8.17,3.658-8.17,8.17c0,4.512,3.658,8.17,8.17,8.17h111.66v2.723c0,16.519,13.438,29.957,29.957,29.957
	s29.957-13.438,29.957-29.957V279.421C267.547,225.454,233.974,179.181,186.619,160.389z M41.505,413.957
	c7.509,0,13.617,6.108,13.617,13.617v54.468c0,7.509-6.108,13.617-13.617,13.617s-13.617-6.108-13.617-13.617v-54.468
	C27.888,420.065,33.997,413.957,41.505,413.957z M131.377,24.511c0-4.506,3.665-8.17,8.17-8.17s8.17,3.665,8.17,8.17v94.23h-16.34
	C131.377,118.74,131.377,24.511,131.377,24.511z M120.483,135.081h38.128v17.761c-6.221-0.934-12.586-1.421-19.064-1.421
	s-12.842,0.488-19.064,1.421C120.483,152.842,120.483,135.081,120.483,135.081z M174.951,203.166
	c0,7.509-6.108,13.617-13.617,13.617H117.76c-7.509,0-13.617-6.108-13.617-13.617v-29.648c11.13-3.731,23.035-5.756,35.404-5.756
	s24.274,2.025,35.404,5.756V203.166z M251.207,482.043c0,7.509-6.108,13.617-13.617,13.617c-7.509,0-13.617-6.108-13.617-13.617
	v-54.468c0-7.509,6.108-13.617,13.617-13.617c7.509,0,13.617,6.108,13.617,13.617V482.043z"/>
<path d="M492.283,462.979h-32.85c-3.619-17.759-18.798-31.355-37.305-32.58V159.591c0-3.556-2.276-6.572-5.447-7.695V99.132
	C416.681,44.47,372.211,0,317.549,0s-99.132,44.47-99.132,99.132v55.129c0,4.512,3.658,8.17,8.17,8.17c4.512,0,8.17-3.658,8.17-8.17
	V99.132c0-45.652,37.14-82.791,82.791-82.791s82.792,37.14,82.792,82.791v52.289H384V99.132c0-36.642-29.809-66.451-66.451-66.451
	s-66.451,29.809-66.451,66.451v85.912c0,4.512,3.658,8.17,8.17,8.17c4.512,0,8.17-3.658,8.17-8.17V99.132
	c0-27.631,22.48-50.111,50.111-50.111s50.111,22.48,50.111,50.111v52.764c-3.171,1.123-5.447,4.14-5.447,7.695v270.808
	c-18.507,1.226-33.686,14.821-37.305,32.58h-32.85c-4.512,0-8.17,3.658-8.17,8.17v32.681c0,4.512,3.658,8.17,8.17,8.17h200.225
	c4.512,0,8.17-3.658,8.17-8.17v-32.681C500.453,466.637,496.795,462.979,492.283,462.979z M378.553,430.298V167.762h27.234v262.536
	H378.553z M364.936,446.638h54.468c10.652,0,19.733,6.831,23.105,16.34H341.831C345.203,453.47,354.284,446.638,364.936,446.638z
	 M484.112,495.66H300.228v-16.34h183.884L484.112,495.66L484.112,495.66z"/>
</svg>